<?xml version="1.0" encoding="iso-8859-1"?>
<!-- Generator: Adobe Illustrator 19.0.0, SVG Export Plug-In . SVG Version: 6.00 Build 0)  -->
<svg version="1.1" id="Capa_1" xmlns="http://www.w3.org/2000/svg" xmlns:xlink="http://www.w3.org/1999/xlink" x="0px" y="0px"
	 viewBox="0 0 512 512" style="enable-background:new 0 0 512 512;" xml:space="preserve">
<g>
	<g>
		<path d="M465.412,365.056l-234.667-192c-3.2-2.603-7.595-3.136-11.307-1.365c-3.733,1.771-6.101,5.525-6.101,9.643v320
			c0,4.693,3.093,8.853,7.573,10.219c1.024,0.299,2.069,0.448,3.093,0.448c3.499,0,6.848-1.728,8.875-4.757L315.054,384H458.67
			c4.501,0,8.512-2.837,10.027-7.104C470.233,372.651,468.91,367.915,465.412,365.056z M309.337,362.667
			c-3.563,0-6.891,1.771-8.875,4.736l-65.792,98.688V203.84l194.133,158.827H309.337z"/>
	</g>
</g>
<g>
	<g>
		<path d="M224.004,0c-5.888,0-10.667,4.779-10.667,10.667V96c0,5.888,4.779,10.667,10.667,10.667S234.67,101.888,234.67,96V10.667
			C234.67,4.779,229.892,0,224.004,0z"/>
	</g>
</g>
<g>
	<g>
		<path d="M138.67,170.667H53.337c-5.888,0-10.667,4.779-10.667,10.667S47.449,192,53.337,192h85.333
			c5.888,0,10.667-4.779,10.667-10.667S144.558,170.667,138.67,170.667z"/>
	</g>
</g>
<g>
	<g>
		<path d="M394.67,170.667h-85.333c-5.888,0-10.667,4.779-10.667,10.667S303.449,192,309.337,192h85.333
			c5.888,0,10.667-4.779,10.667-10.667S400.558,170.667,394.67,170.667z"/>
	</g>
</g>
<g>
	<g>
		<path d="M171.204,113.451L110.852,53.12c-4.16-4.16-10.923-4.16-15.083,0c-4.16,4.16-4.16,10.923,0,15.083l60.352,60.331
			c2.091,2.069,4.821,3.115,7.552,3.115c2.731,0,5.461-1.024,7.531-3.115C175.364,124.373,175.364,117.611,171.204,113.451z"/>
	</g>
</g>
<g>
	<g>
		<path d="M171.204,234.155c-4.16-4.16-10.923-4.16-15.083,0l-60.352,60.331c-4.16,4.16-4.16,10.923,0,15.083
			c2.091,2.069,4.821,3.115,7.552,3.115c2.731,0,5.461-1.045,7.531-3.136l60.352-60.309
			C175.364,245.077,175.364,238.315,171.204,234.155z"/>
	</g>
</g>
<g>
	<g>
		<path d="M352.217,53.12c-4.16-4.16-10.923-4.16-15.083,0l-60.352,60.331c-4.16,4.16-4.16,10.923,0,15.083
			c2.091,2.069,4.821,3.115,7.552,3.115c2.731,0,5.461-1.024,7.531-3.115l60.352-60.331C356.377,64.043,356.377,57.28,352.217,53.12
			z"/>
	</g>
</g>
<g>
</g>
<g>
</g>
<g>
</g>
<g>
</g>
<g>
</g>
<g>
</g>
<g>
</g>
<g>
</g>
<g>
</g>
<g>
</g>
<g>
</g>
<g>
</g>
<g>
</g>
<g>
</g>
<g>
</g>
</svg>
