<svg id="warn" enable-background="new 0 0 300 300" height="512" viewBox="0 0 300 300" width="512" xmlns="http://www.w3.org/2000/svg"><path d="m205.422 254h-110.844c-2.859 0-5.5-1.523-6.93-4l-55.43-96c-1.43-2.477-1.43-5.523 0-8l55.43-96c1.43-2.477 4.07-4 6.93-4h110.844c2.859 0 5.5 1.523 6.93 4l55.43 96c1.43 2.477 1.43 5.523 0 8l-55.43 96c-1.43 2.477-4.071 4-6.93 4zm-106.227-16h101.609l50.812-88-50.812-88h-101.609l-50.812 88z" fill="#af16ef"/><path d="m150 174c-8.837 0-16-7.163-16-16v-64c0-8.837 7.163-16 16-16 8.837 0 16 7.163 16 16v64c0 8.837-7.163 16-16 16z"/><circle cx="150" cy="198" r="16"/></svg>