<?xml version="1.0" standalone="no"?>
<!DOCTYPE svg PUBLIC "-//W3C//DTD SVG 20010904//EN"
 "http://www.w3.org/TR/2001/REC-SVG-20010904/DTD/svg10.dtd">
<svg version="1.0" xmlns="http://www.w3.org/2000/svg"
 width="700.000000pt" height="700.000000pt" viewBox="0 0 700.000000 700.000000"
 preserveAspectRatio="xMidYMid meet">
<metadata>
Created by potrace 1.11, written by Peter Selinger 2001-2013
</metadata>
<g transform="translate(0.000000,700.000000) scale(0.100000,-0.100000)"
fill="#000000" stroke="none">
<path d="M2425 6214 c-200 -30 -472 -107 -561 -159 -45 -26 -84 -90 -84 -136
1 -69 68 -150 142 -170 47 -12 55 -10 228 50 357 125 729 119 1061 -15 137
-56 212 -46 266 36 40 58 26 157 -28 207 -35 32 -160 87 -266 118 -200 57
-264 66 -503 70 -124 2 -238 1 -255 -1z"/>
<path d="M2542 5440 c-141 -29 -272 -175 -312 -349 -55 -235 54 -504 237 -589
238 -109 486 74 526 389 27 216 -81 443 -248 520 -68 31 -140 41 -203 29z"/>
<path d="M4470 5440 c-175 -17 -443 -81 -509 -121 -45 -27 -71 -75 -71 -132 0
-58 17 -94 64 -135 59 -52 109 -54 257 -9 48 14 103 29 122 32 l36 7 -29 -54
c-66 -122 -81 -307 -35 -445 85 -251 298 -370 496 -276 233 111 326 440 200
710 l-30 63 27 -6 c73 -17 239 -77 311 -113 90 -46 148 -53 207 -25 91 43 112
170 42 250 -53 60 -276 159 -458 203 -206 49 -443 68 -630 51z"/>
<path d="M2005 3511 c-71 -32 -115 -104 -115 -187 0 -18 13 -83 29 -145 60
-228 61 -383 6 -542 -41 -118 -79 -168 -264 -345 -325 -311 -433 -473 -485
-725 -22 -107 -21 -297 4 -440 106 -619 560 -1055 1168 -1118 158 -16 255 -4
674 87 387 83 431 99 520 182 82 77 113 168 89 258 -11 41 -76 113 -104 114
-6 1 11 12 38 27 61 31 120 86 146 135 40 79 41 203 1 272 -17 28 -83 87 -114
99 -9 4 -7 9 7 18 11 6 43 35 71 64 94 95 122 236 69 342 -25 49 -81 109 -135
144 -27 18 -72 5 820 220 274 66 319 82 369 131 55 54 76 104 75 183 -1 162
-108 275 -259 275 -31 0 -464 -97 -1135 -255 -737 -173 -933 -217 -986 -222
-56 -5 -63 -3 -73 16 -14 26 -4 47 56 116 105 120 155 271 156 465 2 396 -183
754 -430 830 -80 25 -146 25 -198 1z"/>
<path d="M2995 3486 c-100 -14 -134 -31 -166 -83 -17 -27 -21 -45 -17 -93 5
-72 41 -123 106 -152 42 -19 51 -19 163 -7 147 15 348 7 480 -20 205 -41 418
-132 564 -241 138 -103 183 -117 261 -81 79 36 112 146 67 223 -28 48 -135
134 -254 205 -201 119 -402 193 -649 239 -115 21 -437 27 -555 10z"/>
</g>
</svg>
