<svg width="160" height="42" viewBox="0 0 160 42" fill="none" xmlns="http://www.w3.org/2000/svg">
<path d="M53.9482 40.5533H59.1811V23.6188H68.2513V18.3813H59.1811V6.50969H70.8677V1.27222H53.9482V40.5533ZM83.2521 1.27222C80.2868 1.27222 78.0192 1.97055 76.4494 3.54179C73.833 5.98594 73.4841 8.95384 73.4841 11.9217V29.9037C73.4841 32.8716 73.6585 35.6649 76.4494 38.2837C78.1937 39.8549 80.4612 40.7278 83.2521 40.7278C86.2173 40.7278 88.4849 39.8549 90.2292 38.2837C92.8456 35.8395 93.1944 32.8716 93.1944 29.9037V11.9217C93.1944 8.95384 93.02 6.16052 90.2292 3.54179C88.6593 1.97055 86.2173 1.27222 83.2521 1.27222ZM87.9616 30.7766C87.9616 31.9987 87.7872 33.0462 86.7406 34.0937C86.2173 34.792 84.6475 35.3158 83.2521 35.3158C81.8566 35.3158 80.4612 34.6175 79.9379 34.0937C78.8914 33.0462 78.7169 31.8241 78.7169 30.7766V11.0488C78.7169 9.82676 78.8914 8.77926 79.9379 7.73177C80.4612 7.03344 81.8566 6.68427 83.2521 6.68427C84.6475 6.68427 86.0429 7.20802 86.7406 7.73177C87.7872 8.77926 87.9616 10.0013 87.9616 11.0488V30.7766ZM113.951 5.98594V1.27222H97.0318V6.50969H108.021L97.0318 35.3158V40.3787H113.951V35.1412H102.439L113.951 5.98594ZM134.883 5.98594V1.27222H117.963V6.50969H128.952L117.963 35.3158V40.3787H134.883V35.1412H123.37L134.883 5.98594ZM154.418 1.27222L149.709 16.9846H149.36L144.476 1.27222H138.371L146.569 23.9679V40.5533H151.802V24.1425L160 1.27222H154.418Z" fill="white"/>
<path d="M25.342 35.8395L23.5978 32.1733L33.7146 12.4455C35.2844 14.8896 36.331 17.8575 36.331 21C36.331 27.9833 31.7959 33.9191 25.342 35.8395ZM22.7256 0.050112C9.818 -0.8228 -0.82207 9.82673 0.0500675 22.7458C0.922205 32.8716 9.12029 41.077 19.2371 41.9499C32.1447 42.8228 42.7848 32.1733 41.9127 19.2542C41.0405 9.1284 32.8424 0.923024 22.7256 0.050112ZM12.4344 8.25548C14.702 6.68424 17.3184 5.81133 20.1092 5.63675L15.3997 14.715L12.4344 8.25548ZM18.5394 21.1746L25.8653 6.50966C27.2607 7.03341 28.4817 7.55716 29.7027 8.43007L20.8069 25.8883L18.5394 21.1746ZM5.63175 21C5.63175 17.8575 6.67831 14.8896 8.24816 12.4455L19.5859 36.3633C11.7367 35.6649 5.63175 29.0308 5.63175 21Z" fill="#F15B29"/>
</svg>
