<svg width="80" height="21" viewBox="0 0 80 21" fill="none" xmlns="http://www.w3.org/2000/svg">
<path d="M26.9741 20.2766H29.5905V11.8094H34.1256V9.19062H29.5905V3.25481H35.4339V0.636078H26.9741V20.2766ZM41.626 0.636078C40.1434 0.636078 39.0096 0.985243 38.2247 1.77086C36.9165 2.99294 36.7421 4.47689 36.7421 5.96084V14.9518C36.7421 16.4358 36.8293 17.8324 38.2247 19.1418C39.0968 19.9274 40.2306 20.3639 41.626 20.3639C43.1087 20.3639 44.2424 19.9274 45.1146 19.1418C46.4228 17.9197 46.5972 16.4358 46.5972 14.9518V5.96084C46.5972 4.47689 46.51 3.08023 45.1146 1.77086C44.3297 0.985243 43.1087 0.636078 41.626 0.636078ZM43.9808 15.3883C43.9808 15.9993 43.8936 16.5231 43.3703 17.0468C43.1087 17.396 42.3237 17.6579 41.626 17.6579C40.9283 17.6579 40.2306 17.3087 39.969 17.0468C39.4457 16.5231 39.3585 15.912 39.3585 15.3883V5.52439C39.3585 4.91335 39.4457 4.3896 39.969 3.86585C40.2306 3.51669 40.9283 3.3421 41.626 3.3421C42.3237 3.3421 43.0214 3.60398 43.3703 3.86585C43.8936 4.3896 43.9808 5.00064 43.9808 5.52439V15.3883ZM56.9756 2.99294V0.636078H48.5159V3.25481H54.0104L48.5159 17.6579V20.1893H56.9756V17.5706H51.2195L56.9756 2.99294ZM67.4413 2.99294V0.636078H58.9816V3.25481H64.476L58.9816 17.6579V20.1893H67.4413V17.5706H61.6852L67.4413 2.99294ZM77.2092 0.636078L74.8545 8.49229H74.68L72.238 0.636078H69.1856L73.2846 11.9839V20.2766H75.901V12.0712L80.0001 0.636078H77.2092Z" fill="black"/>
<path d="M12.671 17.9198L11.7989 16.0866L16.8573 6.22273C17.6422 7.44481 18.1655 8.92876 18.1655 10.5C18.1655 13.9916 15.8979 16.9595 12.671 17.9198ZM11.3628 0.025056C4.909 -0.4114 -0.411035 4.91336 0.0250338 11.3729C0.461102 16.4358 4.56015 20.5385 9.61854 20.9749C16.0724 21.4114 21.3924 16.0866 20.9563 9.62709C20.5203 4.5642 16.4212 0.461512 11.3628 0.025056ZM6.21721 4.12774C7.35099 3.34212 8.65919 2.90567 10.0546 2.81837L7.69984 7.35752L6.21721 4.12774ZM9.26969 10.5873L12.9327 3.25483C13.6304 3.5167 14.2409 3.77858 14.8514 4.21503L10.4035 12.9442L9.26969 10.5873ZM2.81587 10.5C2.81587 8.92876 3.33915 7.44481 4.12408 6.22273L9.79297 18.1816C5.86835 17.8325 2.81587 14.5154 2.81587 10.5Z" fill="#F15B29"/>
</svg>
